<svg width="15" height="12" viewBox="0 0 15 12" fill="none" xmlns="http://www.w3.org/2000/svg">
<path d="M12.9545 0H2.04545C0.915852 0 0 0.8955 0 2V10C0 11.1045 0.915852 12 2.04545 12H12.9545C14.0841 12 15 11.1045 15 10V2C15 0.8955 14.0841 0 12.9545 0ZM12.9545 1.33333C13.0333 1.33333 13.109 1.34633 13.1792 1.3705L7.5 5.813L1.8208 1.3705C1.89102 1.34633 1.9667 1.33333 2.04545 1.33333H12.9545ZM12.9545 10.6667H2.04545C1.66892 10.6667 1.36364 10.3682 1.36364 10V2.72033L7.07403 7.18717C7.19847 7.28467 7.34915 7.33333 7.5 7.33333C7.65085 7.33333 7.80153 7.28467 7.92597 7.18717L13.6364 2.72033V10C13.6364 10.3682 13.3311 10.6667 12.9545 10.6667Z" fill="black"/>
</svg>
