<svg width="14" height="13" viewBox="0 0 14 13" fill="none" xmlns="http://www.w3.org/2000/svg">
<path d="M12.9439 10.3624L12.8792 10.1674C12.7259 9.71176 12.2235 9.23661 11.7619 9.11142L10.0537 8.64477C9.59046 8.51874 8.92965 8.68821 8.59072 9.02711L7.97247 9.64536C5.72565 9.03823 3.96379 7.27632 3.35748 5.02993L3.97575 4.41166C4.31468 4.07272 4.48412 3.41279 4.35809 2.94954L3.89228 1.24047C3.76625 0.778065 3.29023 0.275661 2.83551 0.12407L2.64051 0.0585075C2.18492 -0.0930829 1.53518 0.0602242 1.19627 0.399129L0.271472 1.32478C0.106256 1.48912 0.000663587 1.95918 0.000663587 1.9609C-0.0316819 4.89706 1.11962 7.72591 3.19654 9.80286C5.26837 11.8747 8.08662 13.0243 11.0143 12.9996C11.0296 12.9996 11.5133 12.8957 11.6785 12.7313L12.6033 11.8065C12.9422 11.4677 13.0955 10.8179 12.9439 10.3624Z" fill="black"/>
</svg>
