<svg width="25" height="26" viewBox="0 0 25 26" fill="none" xmlns="http://www.w3.org/2000/svg">
<g clip-path="url(#clip0_54_2259)">
<path fill-rule="evenodd" clip-rule="evenodd" d="M0 12.0036C0 6.34656 0 3.51804 1.75757 1.76148C3.51464 0.00390644 6.34316 0.00390625 12.0002 0.00390625H13.0002C18.6567 0.00390625 21.4852 0.00390644 23.2428 1.76148C25.0004 3.51855 25.0004 6.34706 25.0004 12.0036V13.0036C25.0004 18.6606 25.0004 21.4891 23.2428 23.2462C21.4857 25.0038 18.6567 25.0038 13.0002 25.0038H12.0002C6.34316 25.0038 3.51514 25.0038 1.75757 23.2462C0 21.4891 0 18.6601 0 13.0036V12.0036Z" fill="black"/>
<path fill-rule="evenodd" clip-rule="evenodd" d="M13.3019 18.0138C7.60361 18.0138 4.35406 14.1078 4.21875 7.60767H7.07292C7.16648 12.3784 9.27114 14.4 10.9377 14.816V7.60767H13.6253V11.7224C15.2712 11.5454 17.0001 9.67058 17.5831 7.60767H20.2708C19.8231 10.1495 17.9478 12.0242 16.6148 12.7954C17.9483 13.4206 20.0837 15.056 20.8961 18.0143H17.9378C17.3025 16.0349 15.7194 14.5036 13.6253 14.2959V18.0143H13.3029L13.3019 18.0138Z" fill="#FEFEFE"/>
</g>
<defs>
<clipPath id="clip0_54_2259">
<rect width="24.9999" height="25" fill="white" transform="translate(0 0.00341797)"/>
</clipPath>
</defs>
</svg>
