<svg width="86" height="86" viewBox="0 0 86 86" fill="none" xmlns="http://www.w3.org/2000/svg">
<path d="M43 0C19.2507 0 0 19.2507 0 43C0 66.7493 19.2507 86 43 86C66.7493 86 86 66.7493 86 43C86 19.2507 66.7493 0 43 0ZM43 79.2812C22.9618 79.2812 6.71875 63.0382 6.71875 43C6.71875 22.9618 22.9618 6.71875 43 6.71875C63.0382 6.71875 79.2812 22.9618 79.2812 43C79.2812 63.0382 63.0382 79.2812 43 79.2812Z" fill="white"/>
<path d="M59.404 39.9562L33.5076 24.9072C30.6783 23.2327 27.9668 24.5817 27.9668 27.9045V58.0995C27.9668 61.4169 30.6783 62.7686 33.5076 61.0914L59.1994 46.0451C62.0389 44.3706 62.2412 41.6307 59.404 39.9562Z" fill="white"/>
</svg>
