<svg width="252" height="212" viewBox="0 0 252 212" fill="none" xmlns="http://www.w3.org/2000/svg">
<path d="M12.5257 403.496C-27.612 398.954 -67.9947 385.271 -99.1046 358.654C-115.887 344.263 -128.659 326.297 -138.289 306.487C-143.884 294.905 -148.656 282.98 -153.252 270.987C-157.855 258.873 -162.573 246.825 -166.471 234.435C-174.331 209.537 -178.593 183.494 -173.724 157.654C-171.439 145.313 -167.343 133.182 -161.833 121.703C-159.951 115.345 -157.583 109.083 -154.664 103.034C-145.968 84.8899 -133.712 68.2527 -119.338 54.219C-86.9919 22.7181 -44.4777 5.33914 0.183247 1.28191C48.4247 -3.13642 98.118 7.36779 142.082 27.4954C164.156 37.5846 184.137 51.2121 199.66 70.1231C214.602 88.2804 224.75 109.931 233.339 131.601C242.966 155.867 251.167 181.531 251.366 207.899C251.587 233.543 244.63 258.465 234.592 281.856C216.859 323.039 189.398 364.05 148.504 384.84C125.72 396.407 100.63 401.827 75.317 404.186C54.3628 406.146 33.2937 405.943 12.3525 403.625L12.5257 403.496Z" fill="#E31E25"/>
</svg>
