<svg width="1258" height="471" viewBox="0 0 1258 471" fill="none" xmlns="http://www.w3.org/2000/svg">
<path fill-rule="evenodd" clip-rule="evenodd" d="M668.977 466.938C903.003 506.253 959.515 155.707 1216.64 237.841C1313.26 268.697 1398.21 318.33 1501.77 282.791C1601.36 248.62 1694.9 148.483 1727.34 49.3316C1775.97 -99.2934 1669.71 -224.425 1563.87 -317.314C1371.99 -485.617 1122.55 -613.537 874.499 -672.762C687.477 -717.406 461.785 -714.886 310.227 -583.33C182.444 -472.444 -96.6014 -146.451 35.5154 34.0202C88.7807 106.782 213.889 147.918 284.186 206.487C387.791 292.926 529.541 443.492 669.116 466.94L668.977 466.938Z" fill="#E9E7E8"/>
</svg>
