<svg width="343" height="115" viewBox="0 0 343 115" fill="none" xmlns="http://www.w3.org/2000/svg">
<path fill-rule="evenodd" clip-rule="evenodd" d="M308.188 -109.629C260.065 -116.871 210.608 -117.608 162.249 -112.229C121.861 -107.731 86.5784 -105.348 49.7274 -84.8207C5.23536 -60.0314 -18.7346 -35.5546 18.5607 11.9534C49.8983 51.8548 92.3946 85.6776 146.407 80.0503C202.851 74.1781 236.413 59.2593 288.25 91.2353C306.452 102.46 326.666 118.484 349.548 113.736C377.131 108.006 394.705 76.243 405.224 52.9857C419.378 21.756 430.04 -18.8557 414.998 -51.6876C396.742 -91.5142 347.593 -103.698 308.17 -109.627L308.188 -109.629Z" fill="#FF7426"/>
</svg>
