<svg width="588" height="206" viewBox="0 0 588 206" fill="none" xmlns="http://www.w3.org/2000/svg">
<path d="M28.4174 202.944L28.4167 202.955C86.0671 211.456 122.305 175.052 159.331 137.854C161.437 135.738 163.545 133.62 165.66 131.508C185.229 111.962 205.359 92.9334 229.207 81.3889C253.134 69.806 280.736 65.7843 315.169 76.0717C325.464 79.147 335.523 82.6291 345.428 86.0577C347.876 86.905 350.314 87.749 352.744 88.5828C365.027 92.7974 377.117 96.7574 389.286 99.6207C413.592 105.34 438.15 106.67 464.923 96.8591L465.439 98.2675L464.923 96.8591C516.638 77.9125 564.721 24.3568 580.8 -27.999C592.796 -67.0636 584.711 -102.671 566.536 -134.551C548.339 -166.471 520.054 -194.597 491.783 -218.559C389.309 -305.366 256.896 -370.264 125.843 -398.91C27.0269 -420.506 -91.2994 -416.692 -169.46 -346.019L-170.466 -347.132L-169.46 -346.019C-202.542 -316.114 -255.055 -257.413 -290.382 -194.5C-308.045 -163.043 -321.363 -130.619 -325.854 -100.272C-330.342 -69.9471 -326.005 -41.8017 -308.498 -18.7046L-309.694 -17.7985L-308.498 -18.7045C-294.349 -0.035614 -270.861 14.4177 -245.974 28.0526C-241.089 30.7285 -236.15 33.3731 -231.223 36.0116C-211.171 46.7484 -191.312 57.3825 -176.117 69.6026L-176.117 69.6033C-165.345 78.279 -153.789 88.2218 -141.644 98.6718C-138.149 101.679 -134.605 104.728 -131.018 107.801C-114.947 121.565 -97.9683 135.828 -80.4245 149.034C-45.2978 175.476 -8.08456 197.539 28.4174 202.944Z" stroke="#E9E7E8" stroke-width="3"/>
</svg>
