<svg width="524" height="253" viewBox="0 0 524 253" fill="none" xmlns="http://www.w3.org/2000/svg">
<mask id="mask0_54_2274" style="mask-type:alpha" maskUnits="userSpaceOnUse" x="0" y="0" width="524" height="253">
<rect width="524" height="253" fill="#D9D9D9"/>
</mask>
<g mask="url(#mask0_54_2274)">
<path fill-rule="evenodd" clip-rule="evenodd" d="M149.74 348.292C197.863 355.534 247.32 356.271 295.679 350.892C336.067 346.394 371.35 344.011 408.201 323.484C452.693 298.694 476.663 274.218 439.368 226.71C408.03 186.808 365.534 152.986 311.521 158.613C255.077 164.485 221.516 179.404 169.679 147.428C151.477 136.203 131.262 120.179 108.38 124.927C80.797 130.657 63.2234 162.42 52.704 185.677C38.5503 216.907 27.888 257.519 42.9299 290.351C61.1867 330.177 110.335 342.361 149.758 348.291L149.74 348.292Z" fill="#FF7426"/>
</g>
</svg>
