<svg width="155" height="242" viewBox="0 0 155 242" fill="none" xmlns="http://www.w3.org/2000/svg">
<path d="M112.141 240.047C88.2752 237.391 64.2713 229.312 45.7926 213.555C35.8243 205.035 28.2437 194.391 22.533 182.651C19.2158 175.786 16.3876 168.718 13.6643 161.609C10.9373 154.428 8.14099 147.287 5.83365 139.942C1.17969 125.182 -1.33306 109.74 1.58354 94.4096C2.95261 87.0883 5.39844 79.8898 8.68493 73.0762C9.80968 69.3035 11.2228 65.5872 12.9636 61.9968C18.1503 51.2275 25.4527 41.3486 34.0125 33.0118C53.2743 14.2986 78.5715 3.95177 105.134 1.50408C133.827 -1.1611 163.37 5.023 189.499 16.92C202.617 22.8836 214.489 30.9476 223.704 42.1494C232.575 52.9047 238.592 65.7366 243.682 78.5807C249.387 92.9646 254.243 108.178 254.339 123.817C254.449 139.026 250.292 153.814 244.303 167.696C233.723 192.139 217.358 216.488 193.022 228.857C179.462 235.738 164.537 238.976 149.482 240.399C137.019 241.58 124.49 241.479 112.038 240.124L112.141 240.047Z" fill="#E31E25"/>
</svg>
