<svg width="187" height="201" viewBox="0 0 187 201" fill="none" xmlns="http://www.w3.org/2000/svg">
<path fill-rule="evenodd" clip-rule="evenodd" d="M160.924 102.519C160.924 128.922 140.463 157.649 123.524 165.869C98.7957 177.868 62.8055 163.487 47.4557 148.137C21.7603 122.442 24.7764 64.5524 57.7875 41.098C83.4077 22.896 120.384 26.1343 143.992 50.8321C158.838 66.3667 160.924 79.3349 160.924 102.519H160.924ZM169.17 92.4122C170.973 79.2605 179.239 89.6124 184.706 78.2604C180.368 75.8865 177.038 80.1245 166.942 80.2815C162.949 63.3237 175.745 75.8154 176.971 60.066C170.056 61.8258 169.936 63.9081 162.159 66.4627L158.918 55.4397C163.564 52.805 167.476 50.6593 170.375 44.478C162.913 44.0332 161.082 48.2825 155.058 51.8786L150.314 43.8939C154.698 36.0623 157.676 37.8439 160.924 27.2719C150.222 28.8277 151.256 32.8665 144.876 38.4134C140.851 36.0856 139.023 34.3258 134.846 31.7645C136.714 23.382 141.044 16.744 139.304 11.55C125.822 16.6568 134.919 30.6005 120.805 25.476C115.884 17.4231 121.713 13.9071 116.792 5.77736C110.284 11.1317 114.759 7.6643 111.83 16.5803C108.769 25.8909 113.431 22.4131 104.756 23.2287C99.3143 14.9827 105.962 8.10178 100.612 0.00341797C94.3848 4.18727 97.6952 0.359165 95.9997 10.7342C94.2569 21.3996 97.3842 18.9973 90.7155 21.6575C81.2292 20.9167 86.3958 24.3312 83.5936 12.6266C81.3471 3.23394 85.3746 5.25269 76.6729 3.01338C76.9872 27.2247 83.2012 20.9977 74.8005 24.2627C63.2126 26.8453 70.6672 3.5653 58.1735 9.07846C60.3814 14.4318 65.5382 26.8489 59.3067 30.1897C50.9963 34.6445 53.6182 20.561 44.1319 15.5927C39.8145 26.5744 48.766 29.855 47.1627 37.964C46.9745 38.0367 45.744 39.9044 41.5406 36.9923C35.0158 32.4698 39.2382 28.4063 28.0837 25.7C29.2663 35.0576 34.8155 40.5518 40.5655 45.3327C37.5775 50.4185 36.5932 50.1061 32.9887 55.5741C29.1113 51.3418 23.2097 43.9313 17.0737 42.4574C15.5368 54.5141 24.4721 56.8739 30.3099 64.1956L26.5239 74.218C18.0611 71.9408 12.9437 63.4415 5.03758 62.6725C6.45397 82.2237 25.622 74.9492 23.0912 86.481L19.8756 87.6414C19.3696 87.7486 18.7707 87.9445 18.2004 88.027L0 86.3469C3.63637 95.7229 13.2578 96.4546 22.5116 96.4546C22.196 116.991 8.61524 101.917 0.735875 114.648C11.6504 121.357 14.8825 109.072 26.0775 117.12C22.9586 129.944 7.9131 120.809 4.45799 135.314C21.989 134.535 30.8679 118.792 32.542 141.513C25.312 144.452 17.1056 146.58 13.0606 152.923C20.1529 157.499 28.8655 147.779 35.9531 143.497L42.3478 155.08C33.8224 164.994 29.3616 161.255 28.0835 175.744C38.8737 171.17 41.1178 161.112 48.5901 161.622C62.725 162.587 47.7502 177.749 46.1371 185.403C53.027 184.061 51.9569 184.105 55.4262 178.081C58.1743 173.311 58.3239 171.511 60.1661 166.988L70.4321 173.273C67.6675 181.746 64.5451 182.176 65.0415 189.105C65.4105 194.265 64.6805 190.648 66.6433 193.197C75.9926 184.264 67.8789 173.475 86.2565 175.744C86.1223 181.908 85.5487 181.255 84.331 187.278C82.6719 195.479 82.9522 194.921 84.6962 197.465C97.2632 187.023 82.8289 177.539 102.75 177.317C102.612 190.018 97.4184 197.263 108.768 200.003C108.829 172.281 111.24 179.051 116.212 175.296C119.055 177.739 117.917 174.269 121.359 184.896C122.816 189.396 121.71 188.728 124.816 193.197C132.095 191.104 130.341 191.572 128.325 183.999C125.895 174.865 124.481 176.278 129.273 169.681C140.562 169.648 137.722 178.298 144.875 185.403C152.021 174.72 133.137 165.985 144.296 160.561C151.131 158.891 151.503 166.303 160.343 170.669C161.922 153.664 148.787 162.895 154.905 146.995C163.526 150.545 163.268 154.922 172.379 156.518C171.222 143.255 154.492 146.869 162.928 134.798C173.503 138.45 171.37 144.722 181.429 141.379C177.335 128.889 165.671 131.821 166.144 124.409C166.807 114.026 179.306 127.795 187 118.243C175.495 113.569 170.198 118.894 168.946 106.563C175.736 101.449 181.546 104.251 187 100.499L175.904 97.3748C166.873 94.4816 172.698 98.825 169.169 92.4135L169.17 92.4122Z" fill="black"/>
<path fill-rule="evenodd" clip-rule="evenodd" d="M116.91 50.9448C85.4412 50.9448 65.2139 73.4666 64.1616 96.4926C62.9818 122.326 83.1445 145.388 106.477 147.325C132.486 149.486 155.612 127.104 156.796 104.286C158.26 76.0451 142.527 50.9448 116.909 50.9448H116.91Z" fill="black"/>
<path fill-rule="evenodd" clip-rule="evenodd" d="M50.0212 97.6095C50.0212 85.1918 58.029 71.0338 64.9138 64.1057C72.6327 56.3372 83.789 49.5414 98.1636 49.5414C150.848 49.5414 154.57 117.658 132.759 138.579C98.4136 171.523 50.0209 143.091 50.0209 97.6092L50.0212 97.6095ZM88.2668 42.5785C77.3096 44.7049 76.5369 44.9003 67.7079 50.7516C19.9816 82.3879 46.9152 166.28 106.141 160.234C138.586 156.922 157.831 120.245 153.548 92.4212C148.855 61.9295 122.355 35.9618 88.2668 42.5785Z" fill="black"/>
<path d="M92.0614 114.65C94.5777 114.129 96.3765 113.232 98.0516 111.049C99.8022 108.763 106.087 99.243 108.025 96.1749C108.301 95.7244 107.68 95.0659 107.361 95.5254C105.228 98.8086 100.012 106.621 98.321 108.851C97.2025 110.351 97.0562 110.424 97.2424 109.293C97.4285 108.162 103.937 79.4005 103.998 78.1639C104.042 76.9741 100.181 77.7731 98.8148 79.761C98.0859 80.83 84.466 105.641 83.3215 107.452C82.177 109.263 81.9788 108.429 82.3485 106.997C82.718 105.565 86.9067 85.8102 87.2602 84.4254C87.8493 82.1173 87.7247 80.4815 84.6269 80.8165C82.0771 81.0817 80.5572 82.5768 81.0343 82.478C82.7265 82.1279 73.3604 108.288 71.6881 114.581C71.27 116.154 71.7012 116.895 75.6494 116.078C79.5976 115.261 80.2138 114.522 81.1484 113.323C84.1442 108.462 92.0042 94.4618 97.7602 84.1327C98.4991 82.7992 97.3433 86.0552 96.8819 87.6372C96.464 89.2102 88.7754 112.357 88.3787 113.75C87.9819 115.144 89.5448 115.17 92.0611 114.65H92.0614ZM121.073 88.447C118.253 89.0306 115.414 92.0227 113.848 94.358C114.637 91.7025 115.205 89.5737 115.418 88.4803C115.632 87.3868 111.762 87.2693 110.623 89.2974C110.332 89.795 109.243 92.0315 107.361 95.5254C106.945 96.2673 107.809 96.5693 108.025 96.1749C108.349 95.5833 109.352 93.7142 108.723 95.5495C107.885 97.9964 100.424 117.773 99.6338 120.079C99.1179 121.584 100.821 121.32 102.79 120.869C104.498 120.471 106.307 119.66 106.516 118.699C106.847 117.143 108.06 113.132 109.467 108.556C110.103 108.818 111.031 108.932 112.419 108.645C116.107 107.882 120.824 103.408 123.323 96.1139C125.178 90.7022 124.587 87.72 121.073 88.4473L121.073 88.447ZM152.395 86.2072C148.194 92.5855 146.558 94.8917 145.602 96.2698C145.116 96.9826 144.726 97.4129 144.838 96.7338C144.939 95.9696 148.031 82.8252 148.447 80.5529C148.703 79.1008 144.546 79.8712 143.473 81.1886C143.454 81.2115 142.747 81.1492 142.649 81.1684C134.417 82.7637 127.002 89.4935 124.616 96.4582C122.488 102.67 125.411 103.552 128.144 102.986C131.528 102.286 135.81 97.9666 138.859 92.8323C137.39 96.7652 136.288 100.514 135.616 102.708C134.93 104.949 141.083 104.987 143.13 102.072C147.003 96.4172 152.536 87.7955 153.059 86.8564C153.475 86.1146 152.897 85.4472 152.395 86.207V86.2072Z" fill="#FEFEFE"/>
<path d="M86.6084 128.436V133.448H87.4897V129.578H87.5889L89.4685 133.448H90.2867L92.1751 129.578H92.2652V133.448H93.1733V128.436H91.8785L89.927 132.378H89.8822L87.9398 128.436H86.6089H86.6084ZM94.1263 128.436V133.448H98.7127V132.605H95.0437V131.3H98.2271V130.475H95.0437V129.27H98.5778V128.436H94.1265H94.1263ZM99.3871 128.436V129.27H101.5V133.448H102.418V129.27H104.531V128.436H99.3873H99.3871ZM107.022 129.261H107.589L108.632 131.843H105.952L107.022 129.261ZM106.464 128.436L104.288 133.448H105.268L105.61 132.659H109L109.342 133.448H110.304L108.191 128.436H106.464H106.464ZM111.051 128.436V133.448H113.613C114.98 133.448 116.293 132.442 116.293 130.937C116.293 129.433 114.98 128.436 113.613 128.436H111.051ZM112.175 129.46H113.613C114.513 129.46 115.169 130.076 115.169 130.937C115.169 131.798 114.513 132.414 113.613 132.414H112.175V129.46ZM117.102 128.436V133.448H121.742V132.405H118.227V131.408H121.275V130.384H118.227V129.46H121.617V128.436H117.103H117.102ZM127.39 129.061C126.617 128.481 125.807 128.318 124.881 128.318C123.613 128.318 122.57 128.807 122.57 129.868C122.57 130.801 123.19 131.2 124.206 131.318L125.879 131.508C126.302 131.553 126.446 131.69 126.446 131.961C126.446 132.388 125.87 132.587 125.079 132.587C124.261 132.587 123.595 132.369 122.912 131.889L122.381 132.768C123.172 133.357 123.937 133.575 124.953 133.575C126.446 133.575 127.534 133.067 127.534 131.943C127.534 131.019 126.877 130.566 125.816 130.439L124.323 130.267C123.937 130.222 123.676 130.149 123.676 129.859C123.676 129.578 123.91 129.324 124.881 129.324C125.673 129.324 126.266 129.487 126.851 129.895L127.39 129.062L127.39 129.061ZM128.334 128.436V133.448H129.458V128.436H128.334ZM133.289 130.538V131.472L134.557 131.517V132.088C134.152 132.405 133.739 132.541 133.028 132.541C132.03 132.541 131.382 131.934 131.382 130.946C131.382 129.958 132.03 129.351 133.028 129.351C133.847 129.351 134.26 129.577 134.656 130.094L135.546 129.586C134.979 128.735 134.197 128.318 133.046 128.318C131.482 128.318 130.267 129.324 130.267 130.946C130.267 132.568 131.481 133.574 133.046 133.574C133.792 133.574 134.305 133.393 134.782 133.058L134.935 133.448H135.636V130.539H133.289V130.538ZM136.58 128.436V133.448H137.686V130.067L140.663 133.448H141.733V128.436H140.618V131.807L137.641 128.436H136.58H136.58Z" fill="#FEFEFE"/>
</svg>
