<svg width="150" height="160" viewBox="0 0 150 160" fill="none" xmlns="http://www.w3.org/2000/svg">
<path fill-rule="evenodd" clip-rule="evenodd" d="M129.083 82.0128C129.083 103.134 112.671 126.117 99.0836 132.693C79.2479 142.292 50.3788 130.787 38.0661 118.506C17.4548 97.9509 19.8741 51.6392 46.3536 32.8757C66.9046 18.3141 96.5649 20.9047 115.501 40.663C127.41 53.0906 129.083 63.4652 129.083 82.0128H129.083ZM135.698 73.927C137.144 63.4056 143.774 71.6872 148.16 62.6056C144.68 60.7064 142.009 64.0969 133.911 64.2225C130.708 50.6563 140.972 60.6496 141.956 48.05C136.409 49.4579 136.312 51.1237 130.074 53.1674L127.474 44.349C131.201 42.2412 134.339 40.5247 136.664 35.5797C130.679 35.2239 129.21 38.6233 124.378 41.5002L120.572 35.1124C124.09 28.8471 126.478 30.2724 129.083 21.8148C120.499 23.0594 121.328 26.2905 116.211 30.728C112.982 28.8658 111.516 27.4579 108.165 25.4089C109.664 18.7029 113.137 13.3925 111.741 9.23727C100.927 13.3227 108.224 24.4777 96.9022 20.3781C92.9551 13.9357 97.6306 11.123 93.6834 4.61915C88.4628 8.90265 92.0524 6.12871 89.7028 13.2615C87.248 20.71 90.9877 17.9278 84.0287 18.5802C79.6638 11.9834 84.9961 6.47869 80.7046 0C75.7098 3.34708 78.3652 0.284597 77.0051 8.58463C75.6071 17.1169 78.1157 15.1951 72.7664 17.3233C65.1571 16.7306 69.3014 19.4622 67.0537 10.0985C65.2517 2.58442 68.4823 4.19942 61.5023 2.40797C61.7545 21.777 66.739 16.7954 60.0004 19.4074C50.7053 21.4735 56.6849 2.8495 46.6632 7.26004C48.4343 11.5427 52.5707 21.4764 47.5722 24.1491C40.9061 27.7129 43.0092 16.446 35.3999 12.4714C31.9368 21.2568 39.1171 23.8813 37.831 30.3685C37.68 30.4266 36.693 31.9208 33.3214 29.5911C28.0876 25.9731 31.4745 22.7223 22.5271 20.5572C23.4757 28.0433 27.9269 32.4387 32.5392 36.2634C30.1424 40.3321 29.3528 40.0822 26.4615 44.4566C23.3513 41.0707 18.6174 35.1423 13.6955 33.9632C12.4627 43.6086 19.63 45.4964 24.3128 51.3537L21.2759 59.3717C14.4875 57.5499 10.3827 50.7505 4.04084 50.1352C5.17698 65.7763 20.5524 59.9566 18.5224 69.1821L15.943 70.1104C15.5371 70.1961 15.0567 70.3529 14.5993 70.4189L0 69.0748C2.91688 76.5756 10.6346 77.161 18.0575 77.161C17.8043 93.5902 6.91062 81.5312 0.590274 91.7157C9.34525 97.083 11.9379 87.2547 20.9178 93.6934C18.416 103.952 6.34741 96.6442 3.57593 108.249C17.6382 107.626 24.7603 95.0306 26.1032 113.207C20.3037 115.559 13.7211 117.261 10.4764 122.336C16.1654 125.996 23.1541 118.221 28.8394 114.794L33.9688 124.061C27.1303 131.993 23.5521 129.001 22.5269 140.593C31.1821 136.933 32.9822 128.887 38.976 129.295C50.3141 130.067 38.3023 142.197 37.0084 148.319C42.535 147.246 41.6767 147.281 44.4595 142.462C46.6639 138.646 46.7839 137.206 48.2616 133.588L56.4963 138.616C54.2788 145.394 51.7741 145.738 52.1723 151.281C52.4683 155.409 51.8828 152.516 53.4572 154.555C60.9566 147.408 54.4483 138.777 69.1897 140.593C69.0821 145.524 68.6219 145.001 67.6452 149.82C66.3143 156.381 66.5392 155.934 67.9381 157.97C78.0186 149.616 66.4403 142.028 82.4196 141.851C82.3087 152.012 78.1431 157.807 87.2472 160C87.2963 137.822 89.2299 143.238 93.2181 140.234C95.499 142.189 94.5855 139.412 97.3467 147.914C98.5156 151.514 97.6286 150.979 100.12 154.555C105.959 152.88 104.551 153.255 102.935 147.196C100.985 139.889 99.8507 141.02 103.695 135.742C112.75 135.716 110.472 142.636 116.21 148.32C121.942 139.774 106.795 132.785 115.745 128.446C121.228 127.11 121.526 133.039 128.618 136.532C129.884 122.929 119.347 130.313 124.255 117.593C131.171 120.433 130.964 123.935 138.272 125.212C137.344 114.601 123.924 117.493 130.691 107.836C139.174 110.758 137.462 115.775 145.531 113.1C142.248 103.109 132.891 105.454 133.271 99.5248C133.802 91.2181 143.828 102.234 150 94.5916C140.771 90.8526 136.522 95.1124 135.518 85.2478C140.964 81.1563 145.625 83.3985 150 80.3968L141.1 77.8971C133.855 75.5825 138.527 79.0573 135.697 73.9281L135.698 73.927Z" fill="black"/>
<path fill-rule="evenodd" clip-rule="evenodd" d="M93.778 40.7533C68.536 40.7533 52.3109 58.7707 51.4668 77.1915C50.5205 97.8579 66.6937 116.308 85.4098 117.858C106.273 119.586 124.823 101.681 125.772 83.4265C126.947 60.8335 114.327 40.7533 93.7777 40.7533H93.778Z" fill="black"/>
<path fill-rule="evenodd" clip-rule="evenodd" d="M40.1239 78.085C40.1239 68.1509 46.5473 56.8245 52.0698 51.282C58.2615 45.0672 67.2104 39.6305 78.7408 39.6305C121.001 39.6305 123.987 94.1236 106.491 110.861C78.9413 137.216 40.1237 114.47 40.1237 78.0848L40.1239 78.085ZM70.8022 34.0602C62.013 35.7614 61.3932 35.9177 54.3111 40.5987C16.028 65.9077 37.6325 133.021 85.14 128.185C111.166 125.535 126.603 96.1938 123.167 73.9344C119.402 49.541 98.1455 28.7669 70.8022 34.0602Z" fill="black"/>
<path d="M73.8463 91.7172C75.8647 91.3006 77.3076 90.5832 78.6513 88.8368C80.0555 87.008 85.097 79.3917 86.6516 76.9373C86.8724 76.5769 86.3744 76.0501 86.1187 76.4177C84.408 79.0442 80.2238 85.2944 78.8673 87.0784C77.9701 88.2778 77.8528 88.3369 78.0022 87.4319C78.1515 86.5266 83.372 63.5178 83.4208 62.5285C83.4567 61.5767 80.3593 62.2158 79.2635 63.8061C78.6788 64.6614 67.7537 84.5099 66.8357 85.9587C65.9177 87.4074 65.7586 86.7406 66.0552 85.595C66.3516 84.4495 69.7115 68.6455 69.995 67.5377C70.4676 65.6912 70.3676 64.3826 67.8828 64.6506C65.8375 64.8627 64.6184 66.0588 65.0011 65.9797C66.3584 65.6997 58.8455 86.6279 57.5041 91.6618C57.1687 92.9202 57.5146 93.5135 60.6816 92.86C63.8486 92.2065 64.3428 91.6147 65.0926 90.6554C67.4956 86.7666 73.8004 75.5668 78.4175 67.3035C79.0103 66.2367 78.0831 68.8415 77.713 70.1071C77.3778 71.3655 71.2105 89.8826 70.8922 90.9975C70.574 92.1127 71.8276 92.1336 73.8461 91.7172H73.8463ZM97.1175 70.755C94.8553 71.2219 92.5781 73.6155 91.3219 75.4838C91.9548 73.3593 92.4104 71.6563 92.5816 70.7816C92.7528 69.9068 89.6486 69.8128 88.7355 71.4353C88.5017 71.8334 87.6285 73.6226 86.1185 76.4177C85.7854 77.0112 86.4783 77.2528 86.6514 76.9373C86.911 76.464 87.7157 74.9687 87.2113 76.437C86.5388 78.3945 80.5541 94.2155 79.9204 96.0603C79.5066 97.2649 80.8728 97.053 82.4517 96.6922C83.8219 96.3744 85.2736 95.7251 85.4409 94.9562C85.7067 93.7121 86.6797 90.5031 87.8078 86.8425C88.3179 87.052 89.0625 87.1433 90.1761 86.9133C93.1343 86.3028 96.9182 82.7237 98.9228 76.8885C100.41 72.5591 99.9363 70.1734 97.1173 70.7552L97.1175 70.755ZM122.242 68.9631C118.873 74.0658 117.56 75.9108 116.793 77.0132C116.403 77.5835 116.091 77.9276 116.181 77.3844C116.261 76.7731 118.742 66.2575 119.076 64.4397C119.281 63.278 115.946 63.8944 115.085 64.9483C115.07 64.9665 114.504 64.9167 114.425 64.9321C107.821 66.2083 101.874 71.5922 99.9598 77.1639C98.2526 82.1333 100.597 82.8389 102.79 82.3863C105.504 81.8261 108.938 78.3706 111.384 74.2632C110.206 77.4095 109.322 80.4089 108.783 82.1638C108.233 83.9565 113.168 83.987 114.811 81.6546C117.917 77.1311 122.356 70.2338 122.775 69.4825C123.108 68.889 122.645 68.3551 122.242 68.9629V68.9631Z" fill="#FEFEFE"/>
<path d="M69.4722 102.746V106.755H70.1791V103.66H70.2587L71.7663 106.755H72.4227L73.9374 103.66H74.0097V106.755H74.7382V102.746H73.6995L72.1342 105.9H72.0982L70.5402 102.746H69.4726H69.4722ZM75.5025 102.746V106.755H79.1815V106.081H76.2384V105.037H78.792V104.377H76.2384V103.413H79.0733V102.746H75.5028H75.5025ZM79.7224 102.746V103.413H81.4177V106.755H82.1536V103.413H83.8488V102.746H79.7227H79.7224ZM85.8466 103.406H86.3012L87.1378 105.472H84.9882L85.8466 103.406ZM85.3992 102.746L83.6538 106.755H84.4399L84.714 106.125H87.4334L87.7075 106.755H88.4793L86.784 102.746H85.399H85.3992ZM89.0782 102.746V106.755H91.1339C92.2304 106.755 93.2835 105.951 93.2835 104.747C93.2835 103.544 92.2304 102.746 91.1339 102.746H89.0782ZM89.9797 103.565H91.1339C91.8553 103.565 92.3819 104.058 92.3819 104.747C92.3819 105.436 91.8553 105.929 91.1339 105.929H89.9797V103.565ZM93.9326 102.746V106.755H97.6545V105.922H94.8343V105.124H97.2797V104.305H94.8343V103.565H97.5538V102.746H93.9328H93.9326ZM102.184 103.246C101.564 102.783 100.915 102.652 100.172 102.652C99.1548 102.652 98.3181 103.043 98.3181 103.892C98.3181 104.638 98.8159 104.957 99.6309 105.052L100.973 105.204C101.312 105.24 101.427 105.349 101.427 105.567C101.427 105.907 100.966 106.067 100.331 106.067C99.6744 106.067 99.1406 105.893 98.5924 105.509L98.1667 106.212C98.8014 106.683 99.4146 106.857 100.23 106.857C101.427 106.857 102.3 106.451 102.3 105.552C102.3 104.812 101.773 104.45 100.922 104.349L99.7248 104.211C99.4146 104.175 99.2056 104.117 99.2056 103.885C99.2056 103.66 99.3931 103.457 100.172 103.457C100.807 103.457 101.283 103.587 101.752 103.914L102.185 103.247L102.184 103.246ZM102.942 102.746V106.755H103.844V102.746H102.942ZM106.917 104.428V105.175L107.934 105.211V105.668C107.609 105.921 107.277 106.03 106.707 106.03C105.907 106.03 105.387 105.545 105.387 104.754C105.387 103.964 105.907 103.478 106.707 103.478C107.364 103.478 107.696 103.659 108.013 104.073L108.727 103.667C108.272 102.985 107.645 102.652 106.722 102.652C105.467 102.652 104.493 103.457 104.493 104.754C104.493 106.052 105.466 106.857 106.722 106.857C107.32 106.857 107.732 106.712 108.114 106.444L108.237 106.755H108.799V104.428H106.917V104.428ZM109.557 102.746V106.755H110.444V104.051L112.831 106.755H113.69V102.746H112.795V105.443L110.408 102.746H109.556H109.557Z" fill="#FEFEFE"/>
</svg>
