<svg width="896" height="217" viewBox="0 0 896 217" fill="none" xmlns="http://www.w3.org/2000/svg">
<path d="M297.967 5.21877L297.964 5.20762C326.716 -2.68944 352.013 3.28103 375.835 15.8991C397.14 27.1841 417.176 43.7334 437.409 60.4445C439.896 62.4987 442.386 64.5554 444.882 66.6051C467.599 85.262 490.772 103.32 516.164 113.072C541.658 122.863 569.325 124.263 600.941 109.788C610.385 105.465 619.524 100.736 628.519 96.0805C630.742 94.9301 632.956 93.7842 635.164 92.6501C646.325 86.9166 657.343 81.4751 668.64 77.1863C691.2 68.6214 714.815 64.6769 742.681 72.277L742.995 70.8502L742.681 72.277C796.539 86.962 853.441 138.66 878.972 192.48C917.078 272.81 874.269 346.938 828.184 403.608C744.777 506.108 628.12 588.509 505.983 632.4C413.903 665.485 298.077 673.708 208.733 607.018L207.868 608.176L208.733 607.018C170.908 578.792 108.748 522.094 62.5188 459.147C39.4052 427.675 20.3266 394.712 10.2351 363.018C0.146642 331.334 -0.929245 301.029 11.786 274.723L10.4105 274.017L11.786 274.723C22.0523 253.483 42.1972 235.751 63.8472 218.746C68.0968 215.408 72.4059 212.098 76.705 208.795C94.2015 195.352 111.534 182.036 124.025 167.525L124.025 167.525C132.877 157.226 142.254 145.505 152.109 133.185C154.944 129.641 157.82 126.046 160.734 122.422C173.785 106.188 187.628 89.3316 202.218 73.5357C231.439 41.9016 263.495 14.7117 297.967 5.21877Z" stroke="white" stroke-width="3"/>
</svg>
